<svg width="18" height="18" viewBox="0 0 18 18" fill="none" xmlns="http://www.w3.org/2000/svg">
<path d="M9 1.5C4.875 1.5 1.5 4.875 1.5 9C1.5 13.125 4.875 16.5 9 16.5C13.125 16.5 16.5 13.125 16.5 9C16.5 4.875 13.125 1.5 9 1.5ZM12.225 7.2L8.775 11.7C8.625 11.85 8.4 12 8.175 12C7.95 12 7.725 11.925 7.575 11.7L5.775 9.375C5.55 9.075 5.55 8.55 5.925 8.325C6.3 8.1 6.75 8.1 6.975 8.475L8.175 10.05L11.025 6.3C11.25 6 11.775 5.925 12.075 6.15C12.45 6.375 12.45 6.825 12.225 7.2Z" fill="#02BC7D"/>
</svg>
