<svg width="118" height="149" viewBox="0 0 118 149" fill="none" xmlns="http://www.w3.org/2000/svg">
<path d="M114.348 24.024H114.036C94.068 24.024 74.724 15.6 61.152 0.936C59.904 -0.312 57.564 -0.312 56.472 0.936C42.9 15.6 23.556 24.024 3.588 24.024H3.276C1.56 24.024 0 25.428 0 27.3V62.712C0 91.884 14.508 119.028 38.688 135.252L56.94 147.576C57.408 147.888 58.032 148.2 58.812 148.2C59.592 148.2 60.06 148.044 60.684 147.576L78.936 135.252C103.116 119.028 117.624 91.884 117.624 62.712V27.144C117.468 25.428 116.064 24.024 114.348 24.024ZM80.5684 64.6403L57.7863 89.3751C56.6146 90.6769 54.9223 91.3278 53.2299 91.3278C51.5375 91.3278 49.8451 90.5467 48.6735 89.3751L37.2173 77.0077C34.874 74.404 35.0042 70.4985 37.6079 68.1552C40.2116 65.8119 44.117 65.9421 46.4603 68.5458L53.3601 75.9662L71.5857 56.3085C73.929 53.7049 77.8345 53.5747 80.4382 55.918C82.7815 58.1311 82.9117 62.0366 80.5684 64.6403Z" fill="#E52445"/>
</svg>
