<svg width="140" height="148" viewBox="0 0 140 148" fill="none" xmlns="http://www.w3.org/2000/svg">
<g filter="url(#filter0_d_2351_32711)">
<rect x="2" width="136" height="144" rx="8" fill="white"/>
<g clip-path="url(#clip0_2351_32711)">
<path d="M82.9119 40.4479L79.7553 34.4665C79.5591 34.0946 79.0986 33.9522 78.7266 34.1482L70 38.7482C69.628 38.9443 69.4853 39.4047 69.6811 39.7768L70.485 41.3047L67.7865 42.7233L66.9839 41.198C66.788 40.8259 66.3268 40.6824 65.9545 40.879L61.7457 43.0995C57.272 45.4577 55.64 51.0785 58.2455 55.4865L57.6735 56.0582C56.7843 56.947 56.7841 58.3859 57.6735 59.2749C58.5605 60.1614 60.0036 60.1615 60.8906 59.2749L61.4833 58.6825C64.1447 60.1961 67.4718 60.2837 70.3073 58.6619C74.0048 56.5466 75.5318 52.2361 74.4144 48.4445C74.0206 47.1085 74.6255 45.6369 75.9323 44.9623L82.5913 41.4784C82.9649 41.2829 83.1086 40.8208 82.9119 40.4479ZM59.8137 58.1974C59.5204 58.4904 59.0435 58.4904 58.7503 58.1974C58.4569 57.9039 58.4568 57.4292 58.7503 57.1357L59.142 56.7443C59.4689 57.128 59.8259 57.4813 60.2101 57.8011L59.8137 58.1974ZM75.2286 43.6112C73.3034 44.603 72.3464 46.8164 72.9531 48.8752C73.921 52.1592 72.522 55.6399 69.5509 57.3395C65.9546 59.3966 61.428 58.122 59.4385 54.5049C57.4526 50.8948 58.81 46.369 62.4562 44.447L65.9909 42.5822L66.793 44.1065C66.9888 44.4787 67.4493 44.6218 67.8214 44.426L71.8682 42.2986C72.2403 42.103 72.3838 41.642 72.1879 41.2696L71.3835 39.741L78.7633 35.8508L81.2077 40.4829L75.2286 43.6112Z" fill="#E52445"/>
<path d="M70.3913 48.5427C69.121 46.081 66.0658 45.1439 63.552 46.4915C61.0667 47.8238 60.0767 50.9073 61.3448 53.3652C62.6123 55.8214 65.6648 56.7669 68.184 55.4164C70.6693 54.0841 71.6594 51.0006 70.3913 48.5427ZM67.4643 54.0737C65.6927 55.0235 63.5738 54.3627 62.6986 52.6666C61.8095 50.9436 62.5152 48.7758 64.2717 47.8342C66.0312 46.8909 68.1562 47.5335 69.0375 49.2414V49.2413C69.9265 50.9643 69.2208 53.1321 67.4643 54.0737Z" fill="#E52445"/>
<path d="M65.9787 37.6496C66.1747 38.022 66.6353 38.1648 67.0074 37.9689C67.3797 37.7731 67.5226 37.3124 67.3268 36.9401L66.2008 34.8C66.0048 34.4278 65.5443 34.2848 65.172 34.4807C64.7997 34.6765 64.6568 35.1372 64.8527 35.5095L65.9787 37.6496Z" fill="#E52445"/>
<path d="M62.6317 39.5895L64.9311 40.0889C65.3413 40.1781 65.7476 39.918 65.837 39.5062C65.9263 39.095 65.6654 38.6894 65.2543 38.6001L62.9549 38.1007C62.5437 38.0113 62.1383 38.2724 62.049 38.6835C61.9598 39.0946 62.2206 39.5002 62.6317 39.5895Z" fill="#E52445"/>
<path d="M68.9376 37.8765C69.3265 38.0359 69.7716 37.8498 69.9311 37.4603L70.8361 35.25C70.9955 34.8607 70.8092 34.4159 70.4199 34.2565C70.0305 34.0969 69.5858 34.2834 69.4264 34.6727L68.5214 36.8829C68.362 37.2722 68.5483 37.7171 68.9376 37.8765Z" fill="#E52445"/>
</g>
<path d="M29.8596 85.27L26.9756 95H25.1696L23.1256 87.636L20.9556 95L19.1636 95.014L16.4056 85.27H18.0996L20.1156 93.194L22.2996 85.27H24.0916L26.1216 93.152L28.1516 85.27H29.8596ZM35.166 87.16C35.754 87.16 36.2766 87.286 36.734 87.538C37.2006 87.79 37.5646 88.1633 37.826 88.658C38.0966 89.1527 38.232 89.75 38.232 90.45V95H36.65V90.688C36.65 89.9973 36.4773 89.47 36.132 89.106C35.7866 88.7327 35.3153 88.546 34.718 88.546C34.1206 88.546 33.6446 88.7327 33.29 89.106C32.9446 89.47 32.772 89.9973 32.772 90.688V95H31.176V84.64H32.772V88.182C33.0426 87.8553 33.3833 87.6033 33.794 87.426C34.214 87.2487 34.6713 87.16 35.166 87.16ZM41.0798 86.264C40.7904 86.264 40.5478 86.166 40.3518 85.97C40.1558 85.774 40.0578 85.5313 40.0578 85.242C40.0578 84.9527 40.1558 84.71 40.3518 84.514C40.5478 84.318 40.7904 84.22 41.0798 84.22C41.3598 84.22 41.5978 84.318 41.7938 84.514C41.9898 84.71 42.0878 84.9527 42.0878 85.242C42.0878 85.5313 41.9898 85.774 41.7938 85.97C41.5978 86.166 41.3598 86.264 41.0798 86.264ZM41.8638 87.286V95H40.2678V87.286H41.8638ZM46.7592 95.126C46.1525 95.126 45.6065 95.0187 45.1212 94.804C44.6452 94.58 44.2672 94.2813 43.9872 93.908C43.7072 93.5253 43.5578 93.1007 43.5392 92.634H45.1912C45.2192 92.9607 45.3732 93.236 45.6532 93.46C45.9425 93.6747 46.3018 93.782 46.7312 93.782C47.1792 93.782 47.5245 93.698 47.7672 93.53C48.0192 93.3527 48.1452 93.1287 48.1452 92.858C48.1452 92.5687 48.0052 92.354 47.7252 92.214C47.4545 92.074 47.0205 91.92 46.4232 91.752C45.8445 91.5933 45.3732 91.4393 45.0092 91.29C44.6452 91.1407 44.3278 90.912 44.0572 90.604C43.7958 90.296 43.6652 89.89 43.6652 89.386C43.6652 88.9753 43.7865 88.602 44.0292 88.266C44.2718 87.9207 44.6172 87.65 45.0652 87.454C45.5225 87.258 46.0452 87.16 46.6332 87.16C47.5105 87.16 48.2152 87.384 48.7472 87.832C49.2885 88.2707 49.5778 88.8727 49.6152 89.638H48.0192C47.9912 89.2927 47.8512 89.0173 47.5992 88.812C47.3472 88.6067 47.0065 88.504 46.5772 88.504C46.1572 88.504 45.8352 88.5833 45.6112 88.742C45.3872 88.9007 45.2752 89.1107 45.2752 89.372C45.2752 89.5773 45.3498 89.75 45.4992 89.89C45.6485 90.03 45.8305 90.142 46.0452 90.226C46.2598 90.3007 46.5772 90.3987 46.9972 90.52C47.5572 90.6693 48.0145 90.8233 48.3692 90.982C48.7332 91.1313 49.0458 91.3553 49.3072 91.654C49.5685 91.9527 49.7038 92.3493 49.7132 92.844C49.7132 93.2827 49.5918 93.6747 49.3492 94.02C49.1065 94.3653 48.7612 94.636 48.3132 94.832C47.8745 95.028 47.3565 95.126 46.7592 95.126ZM53.2997 88.588V92.858C53.2997 93.1473 53.365 93.3573 53.4957 93.488C53.6357 93.6093 53.869 93.67 54.1957 93.67H55.1757V95H53.9157C53.197 95 52.6464 94.832 52.2637 94.496C51.881 94.16 51.6897 93.614 51.6897 92.858V88.588H50.7797V87.286H51.6897V85.368H53.2997V87.286H55.1757V88.588H53.2997ZM58.2427 84.64V95H56.6467V84.64H58.2427ZM67.4081 90.954C67.4081 91.2433 67.3894 91.5047 67.3521 91.738H61.4581C61.5048 92.354 61.7334 92.8487 62.1441 93.222C62.5548 93.5953 63.0588 93.782 63.6561 93.782C64.5148 93.782 65.1214 93.4227 65.4761 92.704H67.1981C66.9648 93.4133 66.5401 93.9967 65.9241 94.454C65.3174 94.902 64.5614 95.126 63.6561 95.126C62.9188 95.126 62.2561 94.9627 61.6681 94.636C61.0894 94.3 60.6321 93.8333 60.2961 93.236C59.9694 92.6293 59.8061 91.9293 59.8061 91.136C59.8061 90.3427 59.9648 89.6473 60.2821 89.05C60.6088 88.4433 61.0614 87.9767 61.6401 87.65C62.2281 87.3233 62.9001 87.16 63.6561 87.16C64.3841 87.16 65.0328 87.3187 65.6021 87.636C66.1714 87.9533 66.6148 88.4013 66.9321 88.98C67.2494 89.5493 67.4081 90.2073 67.4081 90.954ZM65.7421 90.45C65.7328 89.862 65.5228 89.3907 65.1121 89.036C64.7014 88.6813 64.1928 88.504 63.5861 88.504C63.0354 88.504 62.5641 88.6813 62.1721 89.036C61.7801 89.3813 61.5468 89.8527 61.4721 90.45H65.7421ZM70.5747 88.434C70.8454 88.0607 71.214 87.7573 71.6807 87.524C72.1567 87.2813 72.684 87.16 73.2627 87.16C73.944 87.16 74.56 87.3233 75.1107 87.65C75.6614 87.9767 76.0954 88.4433 76.4127 89.05C76.73 89.6473 76.8887 90.3333 76.8887 91.108C76.8887 91.8827 76.73 92.578 76.4127 93.194C76.0954 93.8007 75.6567 94.2767 75.0967 94.622C74.546 94.958 73.9347 95.126 73.2627 95.126C72.6654 95.126 72.1334 95.0093 71.6667 94.776C71.2094 94.5427 70.8454 94.244 70.5747 93.88V95H68.9787V84.64H70.5747V88.434ZM75.2647 91.108C75.2647 90.576 75.1527 90.1187 74.9287 89.736C74.714 89.344 74.4247 89.05 74.0607 88.854C73.706 88.6487 73.3234 88.546 72.9127 88.546C72.5114 88.546 72.1287 88.6487 71.7647 88.854C71.41 89.0593 71.1207 89.358 70.8967 89.75C70.682 90.142 70.5747 90.604 70.5747 91.136C70.5747 91.668 70.682 92.1347 70.8967 92.536C71.1207 92.928 71.41 93.2267 71.7647 93.432C72.1287 93.6373 72.5114 93.74 72.9127 93.74C73.3234 93.74 73.706 93.6373 74.0607 93.432C74.4247 93.2173 74.714 92.9093 74.9287 92.508C75.1527 92.1067 75.2647 91.64 75.2647 91.108ZM80.063 84.64V95H78.467V84.64H80.063ZM85.5044 95.126C84.7764 95.126 84.1184 94.9627 83.5304 94.636C82.9424 94.3 82.4804 93.8333 82.1444 93.236C81.8084 92.6293 81.6404 91.9293 81.6404 91.136C81.6404 90.352 81.8131 89.6567 82.1584 89.05C82.5037 88.4433 82.9751 87.9767 83.5724 87.65C84.1697 87.3233 84.8371 87.16 85.5744 87.16C86.3117 87.16 86.9791 87.3233 87.5764 87.65C88.1737 87.9767 88.6451 88.4433 88.9904 89.05C89.3357 89.6567 89.5084 90.352 89.5084 91.136C89.5084 91.92 89.3311 92.6153 88.9764 93.222C88.6217 93.8287 88.1364 94.3 87.5204 94.636C86.9137 94.9627 86.2417 95.126 85.5044 95.126ZM85.5044 93.74C85.9151 93.74 86.2977 93.642 86.6524 93.446C87.0164 93.25 87.3104 92.956 87.5344 92.564C87.7584 92.172 87.8704 91.696 87.8704 91.136C87.8704 90.576 87.7631 90.1047 87.5484 89.722C87.3337 89.33 87.0491 89.036 86.6944 88.84C86.3397 88.644 85.9571 88.546 85.5464 88.546C85.1357 88.546 84.7531 88.644 84.3984 88.84C84.0531 89.036 83.7777 89.33 83.5724 89.722C83.3671 90.1047 83.2644 90.576 83.2644 91.136C83.2644 91.9667 83.4744 92.6107 83.8944 93.068C84.3237 93.516 84.8604 93.74 85.5044 93.74ZM101.446 87.286L99.0521 95H97.3721L95.8181 89.302L94.2641 95H92.5841L90.1761 87.286H91.8001L93.4101 93.488L95.0481 87.286H96.7141L98.2821 93.46L99.8781 87.286H101.446ZM103.451 86.264C103.162 86.264 102.919 86.166 102.723 85.97C102.527 85.774 102.429 85.5313 102.429 85.242C102.429 84.9527 102.527 84.71 102.723 84.514C102.919 84.318 103.162 84.22 103.451 84.22C103.731 84.22 103.969 84.318 104.165 84.514C104.361 84.71 104.459 84.9527 104.459 85.242C104.459 85.5313 104.361 85.774 104.165 85.97C103.969 86.166 103.731 86.264 103.451 86.264ZM104.235 87.286V95H102.639V87.286H104.235ZM110.222 87.16C110.829 87.16 111.37 87.286 111.846 87.538C112.332 87.79 112.71 88.1633 112.98 88.658C113.251 89.1527 113.386 89.75 113.386 90.45V95H111.804V90.688C111.804 89.9973 111.632 89.47 111.286 89.106C110.941 88.7327 110.47 88.546 109.872 88.546C109.275 88.546 108.799 88.7327 108.444 89.106C108.099 89.47 107.926 89.9973 107.926 90.688V95H106.33V87.286H107.926V88.168C108.188 87.8507 108.519 87.6033 108.92 87.426C109.331 87.2487 109.765 87.16 110.222 87.16ZM118.53 87.16C119.127 87.16 119.655 87.2813 120.112 87.524C120.579 87.7573 120.943 88.0513 121.204 88.406V87.286H122.814V95.126C122.814 95.8353 122.665 96.4653 122.366 97.016C122.067 97.576 121.633 98.0147 121.064 98.332C120.504 98.6493 119.832 98.808 119.048 98.808C118.003 98.808 117.135 98.5607 116.444 98.066C115.753 97.5807 115.361 96.918 115.268 96.078H116.85C116.971 96.4793 117.228 96.8013 117.62 97.044C118.021 97.296 118.497 97.422 119.048 97.422C119.692 97.422 120.21 97.226 120.602 96.834C121.003 96.442 121.204 95.8727 121.204 95.126V93.838C120.933 94.202 120.565 94.51 120.098 94.762C119.641 95.0047 119.118 95.126 118.53 95.126C117.858 95.126 117.242 94.958 116.682 94.622C116.131 94.2767 115.693 93.8007 115.366 93.194C115.049 92.578 114.89 91.8827 114.89 91.108C114.89 90.3333 115.049 89.6473 115.366 89.05C115.693 88.4527 116.131 87.9907 116.682 87.664C117.242 87.328 117.858 87.16 118.53 87.16ZM121.204 91.136C121.204 90.604 121.092 90.142 120.868 89.75C120.653 89.358 120.369 89.0593 120.014 88.854C119.659 88.6487 119.277 88.546 118.866 88.546C118.455 88.546 118.073 88.6487 117.718 88.854C117.363 89.05 117.074 89.344 116.85 89.736C116.635 90.1187 116.528 90.576 116.528 91.108C116.528 91.64 116.635 92.1067 116.85 92.508C117.074 92.9093 117.363 93.2173 117.718 93.432C118.082 93.6373 118.465 93.74 118.866 93.74C119.277 93.74 119.659 93.6373 120.014 93.432C120.369 93.2267 120.653 92.928 120.868 92.536C121.092 92.1347 121.204 91.668 121.204 91.136ZM40.5561 111.114C40.5561 110.162 40.7754 109.308 41.2141 108.552C41.6621 107.796 42.2641 107.208 43.0201 106.788C43.7854 106.359 44.6208 106.144 45.5261 106.144C46.5621 106.144 47.4814 106.401 48.2841 106.914C49.0961 107.418 49.6841 108.137 50.0481 109.07H48.1301C47.8781 108.557 47.5281 108.174 47.0801 107.922C46.6321 107.67 46.1141 107.544 45.5261 107.544C44.8821 107.544 44.3081 107.689 43.8041 107.978C43.3001 108.267 42.9034 108.683 42.6141 109.224C42.3341 109.765 42.1941 110.395 42.1941 111.114C42.1941 111.833 42.3341 112.463 42.6141 113.004C42.9034 113.545 43.3001 113.965 43.8041 114.264C44.3081 114.553 44.8821 114.698 45.5261 114.698C46.1141 114.698 46.6321 114.572 47.0801 114.32C47.5281 114.068 47.8781 113.685 48.1301 113.172H50.0481C49.6841 114.105 49.0961 114.824 48.2841 115.328C47.4814 115.832 46.5621 116.084 45.5261 116.084C44.6114 116.084 43.7761 115.874 43.0201 115.454C42.2641 115.025 41.6621 114.432 41.2141 113.676C40.7754 112.92 40.5561 112.066 40.5561 111.114ZM55.9062 108.16C56.4942 108.16 57.0169 108.286 57.4742 108.538C57.9409 108.79 58.3049 109.163 58.5662 109.658C58.8369 110.153 58.9722 110.75 58.9722 111.45V116H57.3902V111.688C57.3902 110.997 57.2175 110.47 56.8722 110.106C56.5269 109.733 56.0555 109.546 55.4582 109.546C54.8609 109.546 54.3849 109.733 54.0302 110.106C53.6849 110.47 53.5122 110.997 53.5122 111.688V116H51.9162V105.64H53.5122V109.182C53.7829 108.855 54.1235 108.603 54.5342 108.426C54.9542 108.249 55.4115 108.16 55.9062 108.16ZM60.476 112.108C60.476 111.333 60.6347 110.647 60.952 110.05C61.2787 109.453 61.7173 108.991 62.268 108.664C62.828 108.328 63.444 108.16 64.116 108.16C64.7227 108.16 65.25 108.281 65.698 108.524C66.1553 108.757 66.5193 109.051 66.79 109.406V108.286H68.4V116H66.79V114.852C66.5193 115.216 66.1507 115.519 65.684 115.762C65.2173 116.005 64.6853 116.126 64.088 116.126C63.4253 116.126 62.8187 115.958 62.268 115.622C61.7173 115.277 61.2787 114.801 60.952 114.194C60.6347 113.578 60.476 112.883 60.476 112.108ZM66.79 112.136C66.79 111.604 66.678 111.142 66.454 110.75C66.2393 110.358 65.9547 110.059 65.6 109.854C65.2453 109.649 64.8627 109.546 64.452 109.546C64.0413 109.546 63.6587 109.649 63.304 109.854C62.9493 110.05 62.66 110.344 62.436 110.736C62.2213 111.119 62.114 111.576 62.114 112.108C62.114 112.64 62.2213 113.107 62.436 113.508C62.66 113.909 62.9493 114.217 63.304 114.432C63.668 114.637 64.0507 114.74 64.452 114.74C64.8627 114.74 65.2453 114.637 65.6 114.432C65.9547 114.227 66.2393 113.928 66.454 113.536C66.678 113.135 66.79 112.668 66.79 112.136ZM74.3883 108.16C74.995 108.16 75.5363 108.286 76.0123 108.538C76.4976 108.79 76.8756 109.163 77.1463 109.658C77.417 110.153 77.5523 110.75 77.5523 111.45V116H75.9703V111.688C75.9703 110.997 75.7976 110.47 75.4523 110.106C75.107 109.733 74.6356 109.546 74.0383 109.546C73.441 109.546 72.965 109.733 72.6103 110.106C72.265 110.47 72.0923 110.997 72.0923 111.688V116H70.4963V108.286H72.0923V109.168C72.3536 108.851 72.685 108.603 73.0863 108.426C73.497 108.249 73.931 108.16 74.3883 108.16ZM83.4801 108.16C84.0868 108.16 84.6281 108.286 85.1041 108.538C85.5894 108.79 85.9674 109.163 86.2381 109.658C86.5088 110.153 86.6441 110.75 86.6441 111.45V116H85.0621V111.688C85.0621 110.997 84.8894 110.47 84.5441 110.106C84.1988 109.733 83.7274 109.546 83.1301 109.546C82.5328 109.546 82.0568 109.733 81.7021 110.106C81.3568 110.47 81.1841 110.997 81.1841 111.688V116H79.5881V108.286H81.1841V109.168C81.4454 108.851 81.7768 108.603 82.1781 108.426C82.5888 108.249 83.0228 108.16 83.4801 108.16ZM95.7499 111.954C95.7499 112.243 95.7312 112.505 95.6939 112.738H89.7999C89.8465 113.354 90.0752 113.849 90.4859 114.222C90.8965 114.595 91.4005 114.782 91.9979 114.782C92.8565 114.782 93.4632 114.423 93.8179 113.704H95.5399C95.3065 114.413 94.8819 114.997 94.2659 115.454C93.6592 115.902 92.9032 116.126 91.9979 116.126C91.2605 116.126 90.5979 115.963 90.0099 115.636C89.4312 115.3 88.9739 114.833 88.6379 114.236C88.3112 113.629 88.1479 112.929 88.1479 112.136C88.1479 111.343 88.3065 110.647 88.6239 110.05C88.9505 109.443 89.4032 108.977 89.9819 108.65C90.5699 108.323 91.2419 108.16 91.9979 108.16C92.7259 108.16 93.3745 108.319 93.9439 108.636C94.5132 108.953 94.9565 109.401 95.2739 109.98C95.5912 110.549 95.7499 111.207 95.7499 111.954ZM94.0839 111.45C94.0745 110.862 93.8645 110.391 93.4539 110.036C93.0432 109.681 92.5345 109.504 91.9279 109.504C91.3772 109.504 90.9059 109.681 90.5139 110.036C90.1219 110.381 89.8885 110.853 89.8139 111.45H94.0839ZM98.9165 105.64V116H97.3205V105.64H98.9165Z" fill="#211F1F"/>
</g>
<defs>
<filter id="filter0_d_2351_32711" x="0" y="0" width="140" height="148" filterUnits="userSpaceOnUse" color-interpolation-filters="sRGB">
<feFlood flood-opacity="0" result="BackgroundImageFix"/>
<feColorMatrix in="SourceAlpha" type="matrix" values="0 0 0 0 0 0 0 0 0 0 0 0 0 0 0 0 0 0 127 0" result="hardAlpha"/>
<feOffset dy="2"/>
<feGaussianBlur stdDeviation="1"/>
<feComposite in2="hardAlpha" operator="out"/>
<feColorMatrix type="matrix" values="0 0 0 0 0.87451 0 0 0 0 0.901961 0 0 0 0 0.92549 0 0 0 1 0"/>
<feBlend mode="normal" in2="BackgroundImageFix" result="effect1_dropShadow_2351_32711"/>
<feBlend mode="normal" in="SourceGraphic" in2="effect1_dropShadow_2351_32711" result="shape"/>
</filter>
<clipPath id="clip0_2351_32711">
<rect width="26" height="26" fill="white" transform="translate(57 34)"/>
</clipPath>
</defs>
</svg>
