<svg width="1299" height="463" viewBox="0 0 1299 463" fill="none" xmlns="http://www.w3.org/2000/svg">
<mask id="mask0_1_2" style="mask-type:alpha" maskUnits="userSpaceOnUse" x="0" y="0" width="1299" height="463">
<rect width="1299" height="463" rx="48" transform="matrix(-1 0 0 1 1299 0)" fill="#E52445"/>
</mask>
<g mask="url(#mask0_1_2)">
<g clip-path="url(#clip0_1_2)">
<rect width="1423.56" height="696" transform="matrix(-1 0 0 1 1380.06 -56)" fill="white"/>
<g opacity="0.6">
<ellipse cx="557.5" cy="340" rx="557.5" ry="340" transform="matrix(-1 0 0 1 1695.06 -310)" fill="url(#paint0_radial_1_2)" fill-opacity="0.37"/>
<ellipse cx="733.5" cy="651" rx="733.5" ry="651" transform="matrix(-1 0 0 1 1502.06 -246)" fill="url(#paint1_radial_1_2)"/>
</g>
<g filter="url(#filter0_f_1_2)">
<ellipse cx="629" cy="262.5" rx="629" ry="262.5" transform="matrix(-1 0 0 1 1371.06 30)" fill="url(#paint2_radial_1_2)" fill-opacity="0.9"/>
</g>
<ellipse opacity="0.15" cx="512.5" cy="574.5" rx="512.5" ry="574.5" transform="matrix(-1 0 0 1 496.065 -259)" fill="url(#paint3_radial_1_2)"/>
</g>
</g>
<defs>
<filter id="filter0_f_1_2" x="-70.9353" y="-154" width="1626" height="893" filterUnits="userSpaceOnUse" color-interpolation-filters="sRGB">
<feFlood flood-opacity="0" result="BackgroundImageFix"/>
<feBlend mode="normal" in="SourceGraphic" in2="BackgroundImageFix" result="shape"/>
<feGaussianBlur stdDeviation="92" result="effect1_foregroundBlur_1_2"/>
</filter>
<radialGradient id="paint0_radial_1_2" cx="0" cy="0" r="1" gradientUnits="userSpaceOnUse" gradientTransform="translate(557.5 371.799) rotate(90) scale(308.201 505.36)">
<stop stop-color="#F00036"/>
<stop offset="1" stop-color="#E52445" stop-opacity="0"/>
</radialGradient>
<radialGradient id="paint1_radial_1_2" cx="0" cy="0" r="1" gradientUnits="userSpaceOnUse" gradientTransform="translate(733.5 711.885) rotate(90) scale(590.115 664.899)">
<stop stop-color="#BD54FE"/>
<stop offset="1" stop-color="#B324E5" stop-opacity="0"/>
</radialGradient>
<radialGradient id="paint2_radial_1_2" cx="0" cy="0" r="1" gradientUnits="userSpaceOnUse" gradientTransform="translate(629 262.5) rotate(90) scale(262.5 629)">
<stop stop-color="white"/>
<stop offset="1" stop-color="white"/>
</radialGradient>
<radialGradient id="paint3_radial_1_2" cx="0" cy="0" r="1" gradientTransform="matrix(-383.475 457.408 -408.045 -430.73 739.193 335.125)" gradientUnits="userSpaceOnUse">
<stop stop-color="#097037"/>
<stop offset="1" stop-color="#097037" stop-opacity="0.08"/>
</radialGradient>
<clipPath id="clip0_1_2">
<rect width="1423.56" height="696" fill="white" transform="matrix(-1 0 0 1 1380.06 -56)"/>
</clipPath>
</defs>
</svg>
